<?xml version="1.0" encoding="UTF-8"?>
<svg width="600px" height="183px" viewBox="0 0 600 183" version="1.1" xmlns="http://www.w3.org/2000/svg" xmlns:xlink="http://www.w3.org/1999/xlink">
    <!-- Generator: Sketch 63.1 (92452) - https://sketch.com -->
    <title>logo imperatore colore orizzontale</title>
    <desc>Created with Sketch.</desc>
    <defs>
        <polygon id="path-1" points="0.753052326 0.257875947 19.780814 0.257875947 19.780814 24.757838 0.753052326 24.757838"></polygon>
        <polygon id="path-3" points="0.753052326 0.257875947 19.780814 0.257875947 19.780814 24.757838 0.753052326 24.757838"></polygon>
    </defs>
    <g id="Style-Guide" stroke="none" stroke-width="1" fill="none" fill-rule="evenodd">
        <g id="logotype" transform="translate(-300.000000, -220.000000)">
            <g id="Loghi/logo-col-oriz" transform="translate(300.000000, 220.000000)">
                <g id="Group-18" stroke-width="1" transform="translate(172.431730, 69.440832)">
                    <path d="M253.593038,11.7098978 L265.33141,11.7098978 L265.33141,46.1344148 L277.199724,46.1344148 L277.199724,11.7098978 L288.936352,11.7098978 L288.936352,1.71633128 L253.593038,1.71633128 L253.593038,11.7098978 Z M228.690422,32.154778 L232.66891,22.7491198 L236.712805,32.154778 L228.690422,32.154778 Z M232.800596,0.932744819 L211.215422,46.1344148 L222.820364,46.1344148 L225.040712,40.7777234 L240.495073,40.7777234 L242.842747,46.1344148 L255.100887,46.1344148 L233.582864,0.932744819 C233.386643,0.476744669 232.995945,0.476744669 232.800596,0.932744819 L232.800596,0.932744819 Z M186.706991,23.1413498 L181.228503,23.1413498 L181.228503,11.7745415 L186.706991,11.7745415 C190.750015,11.7745415 192.90234,13.8003352 192.90234,17.4596928 C192.90234,21.115556 190.750015,23.1413498 186.706991,23.1413498 L186.706991,23.1413498 Z M204.836933,17.4596928 C204.836933,8.37987369 198.574433,1.71633128 187.295654,1.71633128 L169.361061,1.71633128 L169.361061,46.1344148 L181.228503,46.1344148 L181.228503,32.2202953 L185.27327,32.2202953 L193.097689,46.1344148 L205.944491,46.1344148 L196.750015,30.3910533 C202.032282,27.9747767 204.836933,23.337028 204.836933,17.4596928 L204.836933,17.4596928 Z M406.798852,36.1399747 L406.798852,28.4980412 L422.840131,28.4980412 L422.840131,19.0268657 L406.798852,19.0268657 L406.798852,11.7098978 L426.036352,11.7098978 L426.036352,1.71633128 L394.93141,1.71633128 L394.93141,46.1344148 L426.950305,46.1344148 L426.950305,36.1399747 L406.798852,36.1399747 Z M316.902631,36.4020438 C309.467166,36.4020438 305.229666,30.9143179 305.229666,23.9231891 C305.229666,16.9338075 309.467166,11.5142195 316.902631,11.5142195 C324.337224,11.5142195 328.573852,16.9338075 328.573852,23.9231891 C328.573852,30.9143179 324.337224,36.4020438 316.902631,36.4020438 L316.902631,36.4020438 Z M316.902631,1.19394031 C304.120364,1.19394031 293.101468,10.5349549 293.101468,23.9231891 C293.101468,37.3157912 304.120364,46.7214495 316.902631,46.7214495 C329.684898,46.7214495 340.70641,37.3157912 340.70641,23.9231891 C340.70641,10.5349549 329.684898,1.19394031 316.902631,1.19394031 L316.902631,1.19394031 Z M366.838677,23.1413498 L361.361933,23.1413498 L361.361933,11.7745415 L366.838677,11.7745415 C370.879957,11.7745415 373.032282,13.8003352 373.032282,17.4596928 C373.032282,21.115556 370.879957,23.1413498 366.838677,23.1413498 L366.838677,23.1413498 Z M384.966875,17.4596928 C384.966875,8.37987369 378.705247,1.71633128 367.424724,1.71633128 L349.491875,1.71633128 L349.491875,46.1344148 L361.361933,46.1344148 L361.361933,32.2202953 L365.404084,32.2202953 L373.227631,46.1344148 L386.075305,46.1344148 L376.880829,30.3910533 C382.163096,27.9747767 384.966875,23.337028 384.966875,17.4596928 L384.966875,17.4596928 Z M101.501759,23.4663154 L96.0223984,23.4663154 L96.0223984,11.7745415 L101.501759,11.7745415 C105.543038,11.7745415 107.696236,13.9960135 107.696236,17.655371 C107.696236,21.3129814 105.543038,23.4663154 101.501759,23.4663154 L101.501759,23.4663154 Z M102.085189,1.71633128 L84.1540844,1.71633128 L84.1540844,46.1344148 L96.0223984,46.1344148 L96.0223984,33.3978589 L102.085189,33.3978589 C113.368329,33.3978589 119.62734,26.7343165 119.62734,17.655371 C119.62734,8.57380479 113.368329,1.71633128 102.085189,1.71633128 L102.085189,1.71633128 Z M71.1895496,1.19394031 L50.2601891,25.0998792 L29.0037937,1.19394031 C28.7395496,0.867227556 28.4787937,0.802583856 28.4142589,1.25945757 L25.8058286,46.1344148 L37.4125147,46.1344148 L38.4555379,27.1247994 L49.9994333,40.0579071 C50.1930379,40.2544588 50.3883868,40.2544588 50.5837356,40.0579071 L61.6715263,27.1920638 L62.7145496,46.1344148 L74.3875147,46.1344148 L71.7790844,1.25945757 C71.7145496,0.802583856 71.4529216,0.867227556 71.1895496,1.19394031 L71.1895496,1.19394031 Z M3.90146816,46.1344148 L15.7680379,46.1344148 L15.7680379,1.71633128 L3.90146816,1.71633128 L3.90146816,46.1344148 Z M140.224433,28.4980412 L156.265712,28.4980412 L156.265712,19.0268657 L140.224433,19.0268657 L140.224433,11.7098978 L159.461061,11.7098978 L159.461061,1.71633128 L128.356119,1.71633128 L128.356119,46.1344148 L160.372398,46.1344148 L160.372398,36.1399747 L140.224433,36.1399747 L140.224433,28.4980412 Z" id="Fill-1" fill="#093A67"></path>
                    <path d="M82.2357414,78.520384 L86.9136484,66.8784032 L91.5898112,78.520384 L82.2357414,78.520384 Z M86.8752763,61.5802405 L76.5837065,86.6681108 L78.9610321,86.6681108 L81.3706251,80.611695 L92.4549275,80.611695 L94.9002763,86.6681108 L97.3831251,86.6681108 L87.0575437,61.5802405 L86.8752763,61.5802405 Z M158.884869,75.3493485 L169.967427,75.3493485 L169.967427,73.2956007 L158.884869,73.2956007 L158.884869,64.2481035 L171.299114,64.2481035 L171.299114,62.157666 L156.546788,62.157666 L156.546788,86.6681108 L171.803183,86.6681108 L171.803183,84.5767998 L158.884869,84.5767998 L158.884869,75.3493485 Z M197.084288,84.5767998 L197.084288,62.157666 L194.746207,62.157666 L194.746207,86.6681108 L208.454637,86.6681108 L208.454637,84.5767998 L197.084288,84.5767998 Z M0.694171644,64.2481035 L8.28312513,64.2481035 L8.28312513,86.6681108 L10.6238228,86.6681108 L10.6238228,64.2481035 L18.1787647,64.2481035 L18.1787647,62.157666 L0.694171644,62.157666 L0.694171644,64.2481035 Z M123.998532,81.8739943 L116.082544,62.157666 L113.562195,62.157666 L123.88952,87.1704098 L124.033416,87.1704098 L134.360741,62.157666 L131.949404,62.157666 L123.998532,81.8739943 Z M47.3459158,74.5928425 L42.5258577,74.5928425 L42.5258577,64.2481035 L47.3459158,64.2481035 C51.3052182,64.2481035 53.2124856,66.3018513 53.2124856,69.4737604 C53.2124856,72.6089798 51.3427182,74.5928425 47.3459158,74.5928425 L47.3459158,74.5928425 Z M55.6613228,69.4737604 C55.6613228,65.3304487 52.7790554,62.157666 47.4915554,62.157666 L40.1877763,62.157666 L40.1877763,86.6681108 L42.5258577,86.6681108 L42.5258577,76.6465903 L47.9973693,76.6465903 L54.1839972,86.6681108 L56.8098693,86.6681108 L50.3694623,76.284935 C53.7889391,75.384291 55.6613228,72.7889339 55.6613228,69.4737604 L55.6613228,69.4737604 Z" id="Fill-3" fill="#093A67"></path>
                    <polygon id="Fill-7" fill="#093A67" points="237.963474 63.5163193 240.408823 63.5163193 246.379172 82.5757279 253.752718 62.9397674 253.933241 62.9397674 261.343416 82.5757279 267.278009 63.5163193 269.580334 63.5163193 261.523067 88.4845114 261.343416 88.4845114 253.860858 68.5594014 246.235276 88.4845114 246.092253 88.4845114"></polygon>
                    <path d="M311.975567,75.7657762 C311.975567,69.8211766 307.696207,65.3537728 301.868881,65.3537728 C296.041555,65.3537728 291.761323,69.8211766 291.761323,75.7657762 C291.761323,81.7112494 296.041555,86.1786532 301.868881,86.1786532 C307.696207,86.1786532 311.975567,81.7112494 311.975567,75.7657762 M289.315974,75.7657762 C289.315974,68.5239348 294.926148,63.2275192 301.868881,63.2275192 C308.810741,63.2275192 314.421788,68.5239348 314.421788,75.7657762 C314.421788,83.0076177 308.810741,88.3049068 301.868881,88.3049068 C294.926148,88.3049068 289.315974,83.0076177 289.315974,75.7657762" id="Fill-9" fill="#093A67"></path>
                    <path d="M345.856904,75.9458177 C349.849346,75.9458177 351.719986,73.9645756 351.719986,70.8302298 C351.719986,67.6600678 349.81359,65.6054465 345.856904,65.6054465 L341.037718,65.6054465 L341.037718,75.9458177 L345.856904,75.9458177 Z M341.037718,88.0158446 L338.698765,88.0158446 L338.698765,63.5158826 L346.0008,63.5158826 C351.2883,63.5158826 354.165334,66.6860445 354.165334,70.8302298 C354.165334,74.1445297 352.295567,76.7390133 348.878707,77.6387837 L355.317369,88.0158446 L352.691497,88.0158446 L346.503997,78.000439 L345.929288,78.000439 L341.037718,78.000439 L341.037718,88.0158446 Z" id="Fill-11" fill="#093A67"></path>
                    <polygon id="Fill-13" fill="#093A67" points="372.614986 63.5163193 374.953939 63.5163193 374.953939 85.9258439 386.319927 85.9258439 386.319927 88.0162814 372.614986 88.0162814"></polygon>
                    <g id="Group-17" transform="translate(407.510131, 63.258705)">
                        <mask id="mask-2" fill="white">
                            <use xlink:href="#path-1"></use>
                        </mask>
                        <g id="Clip-16"></g>
                        <path d="M6.65276163,22.6315844 C13.8824128,22.6315844 17.3350291,18.4524566 17.3350291,12.5069834 C17.3350291,6.56238376 13.8824128,2.38238239 6.65276163,2.38238239 L3.09200581,2.38238239 L3.09200581,22.6315844 L6.65276163,22.6315844 Z M0.753052326,0.257875947 L6.8681686,0.257875947 C14.9611919,0.257875947 19.78125,5.26514195 19.78125,12.5069834 C19.78125,19.7488249 14.9969477,24.757838 6.8681686,24.757838 L0.753052326,24.757838 L0.753052326,0.257875947 Z" id="Fill-15" fill="#093A67" mask="url(#mask-2)"></path>
                    </g>
                </g>
                <g id="Group-18" stroke-width="1" transform="translate(172.431730, 130.299090)">
                    <path d="M82.2357414,17.6621265 L86.9136484,6.02014572 L91.5898112,17.6621265 L82.2357414,17.6621265 Z M86.8752763,0.721983064 L76.5837065,25.8098533 L78.9610321,25.8098533 L81.3706251,19.7534376 L92.4549275,19.7534376 L94.9002763,25.8098533 L97.3831251,25.8098533 L87.0575437,0.721983064 L86.8752763,0.721983064 Z M158.884869,14.491091 L169.967427,14.491091 L169.967427,12.4373432 L158.884869,12.4373432 L158.884869,3.38984601 L171.299114,3.38984601 L171.299114,1.29940854 L156.546788,1.29940854 L156.546788,25.8098533 L171.803183,25.8098533 L171.803183,23.7185423 L158.884869,23.7185423 L158.884869,14.491091 Z M197.084288,23.7185423 L197.084288,1.29940854 L194.746207,1.29940854 L194.746207,25.8098533 L208.454637,25.8098533 L208.454637,23.7185423 L197.084288,23.7185423 Z M0.694171644,3.38984601 L8.28312513,3.38984601 L8.28312513,25.8098533 L10.6238228,25.8098533 L10.6238228,3.38984601 L18.1787647,3.38984601 L18.1787647,1.29940854 L0.694171644,1.29940854 L0.694171644,3.38984601 Z M123.998532,21.0157368 L116.082544,1.29940854 L113.562195,1.29940854 L123.88952,26.3121524 L124.033416,26.3121524 L134.360741,1.29940854 L131.949404,1.29940854 L123.998532,21.0157368 Z M47.3459158,13.734585 L42.5258577,13.734585 L42.5258577,3.38984601 L47.3459158,3.38984601 C51.3052182,3.38984601 53.2124856,5.44359381 53.2124856,8.61550289 C53.2124856,11.7507223 51.3427182,13.734585 47.3459158,13.734585 L47.3459158,13.734585 Z M55.6613228,8.61550289 C55.6613228,4.47219119 52.7790554,1.29940854 47.4915554,1.29940854 L40.1877763,1.29940854 L40.1877763,25.8098533 L42.5258577,25.8098533 L42.5258577,15.7883328 L47.9973693,15.7883328 L54.1839972,25.8098533 L56.8098693,25.8098533 L50.3694623,15.4266775 C53.7889391,14.5260336 55.6613228,11.9306764 55.6613228,8.61550289 L55.6613228,8.61550289 Z" id="Fill-3" fill="#093A67"></path>
                    <polygon id="Fill-7" fill="#093A67" points="237.963474 2.65806186 240.408823 2.65806186 246.379172 21.7174704 253.752718 2.08150995 253.933241 2.08150995 261.343416 21.7174704 267.278009 2.65806186 269.580334 2.65806186 261.523067 27.6262539 261.343416 27.6262539 253.860858 7.70114397 246.235276 27.6262539 246.092253 27.6262539"></polygon>
                    <path d="M311.975567,14.9075187 C311.975567,8.9629191 307.696207,4.49551533 301.868881,4.49551533 C296.041555,4.49551533 291.761323,8.9629191 291.761323,14.9075187 C291.761323,20.852992 296.041555,25.3203957 301.868881,25.3203957 C307.696207,25.3203957 311.975567,20.852992 311.975567,14.9075187 M289.315974,14.9075187 C289.315974,7.66567729 294.926148,2.36926176 301.868881,2.36926176 C308.810741,2.36926176 314.421788,7.66567729 314.421788,14.9075187 C314.421788,22.1493602 308.810741,27.4466493 301.868881,27.4466493 C294.926148,27.4466493 289.315974,22.1493602 289.315974,14.9075187" id="Fill-9" fill="#093A67"></path>
                    <path d="M345.856904,15.0875602 C349.849346,15.0875602 351.719986,13.1063182 351.719986,9.9719723 C351.719986,6.80181034 349.81359,4.74718898 345.856904,4.74718898 L341.037718,4.74718898 L341.037718,15.0875602 L345.856904,15.0875602 Z M341.037718,27.1575871 L338.698765,27.1575871 L338.698765,2.65762508 L346.0008,2.65762508 C351.2883,2.65762508 354.165334,5.82778703 354.165334,9.9719723 C354.165334,13.2862722 352.295567,15.8807558 348.878707,16.7805263 L355.317369,27.1575871 L352.691497,27.1575871 L346.503997,17.1421815 L345.929288,17.1421815 L341.037718,17.1421815 L341.037718,27.1575871 Z" id="Fill-11" fill="#093A67"></path>
                    <polygon id="Fill-13" fill="#093A67" points="372.614986 2.65806186 374.953939 2.65806186 374.953939 25.0675864 386.319927 25.0675864 386.319927 27.1580239 372.614986 27.1580239"></polygon>
                    <g id="Group-17" transform="translate(407.510131, 2.400448)">
                        <mask id="mask-4" fill="white">
                            <use xlink:href="#path-3"></use>
                        </mask>
                        <g id="Clip-16"></g>
                        <path d="M6.65276163,22.6315844 C13.8824128,22.6315844 17.3350291,18.4524566 17.3350291,12.5069834 C17.3350291,6.56238376 13.8824128,2.38238239 6.65276163,2.38238239 L3.09200581,2.38238239 L3.09200581,22.6315844 L6.65276163,22.6315844 Z M0.753052326,0.257875947 L6.8681686,0.257875947 C14.9611919,0.257875947 19.78125,5.26514195 19.78125,12.5069834 C19.78125,19.7488249 14.9969477,24.757838 6.8681686,24.757838 L0.753052326,24.757838 L0.753052326,0.257875947 Z" id="Fill-15" fill="#093A67" mask="url(#mask-4)"></path>
                    </g>
                </g>
                <path d="M0.244269593,182.492205 L0.244269593,91.0427835 C0.447467267,91.5712894 0.696885872,92.0814505 1.03351378,92.5269679 C2.4681068,94.4226007 5.51083936,97.1254062 9.41258355,103.045546 C13.3125835,108.965686 18.4797347,112.989319 18.4797347,112.989319 C18.4928161,113.387664 18.5268277,113.755435 18.5547347,114.131067 L18.5547347,114.131067 L18.5547347,164.149992 L31.7067696,164.149992 C31.6812489,164.03706 32.785445,163.936396 34.7669778,163.848131 C34.6329158,162.941969 34.837728,162.044989 36.0678222,161.291692 C37.8372989,160.206726 39.5570663,160.059967 39.7550315,160.15868 C39.7550315,160.15868 40.6872989,156.267828 41.2794501,156.024977 C41.8672408,155.775138 42.3608454,152.230218 42.8012524,151.740148 C43.2442756,151.248332 42.2622989,150.855229 42.0172408,150.313619 C41.7695663,149.770263 40.1492175,146.768699 40.1980547,146.224469 C40.247764,145.686353 39.7053222,143.715594 39.1663687,142.879594 C38.6247989,142.04272 37.9358454,137.267822 36.9041594,135.641247 C35.8716012,134.019039 35.6274152,131.065521 35.5288687,130.425199 C35.4294501,129.784877 32.8733454,126.045152 32.5794501,124.074392 C32.5794501,124.074392 30.6146245,121.613564 30.0259617,119.741517 C29.4346826,117.872091 22.5059035,116.001792 22.1622989,105.270064 C22.1622989,105.270064 17.738171,101.823856 14.3971826,96.7554408 C11.053578,91.6844047 8.45125239,89.3694614 7.22160122,87.7455068 C5.99282215,86.1215523 5.94398494,83.6118043 5.84543843,82.2324476 C5.74689192,80.8548379 3.63293843,75.6850891 3.38788029,72.3882604 C3.14369425,69.0888111 3.83090355,54.5675649 3.92945006,51.1213569 C4.02625239,47.6760225 3.19340355,44.8203434 3.58584541,43.7869177 C3.97741518,42.7534921 4.32363611,39.7991003 4.32363611,39.7991003 C4.02625239,38.7167552 2.0614268,34.9254896 1.12828727,31.2329366 C0.194275641,27.5430044 -0.199910405,24.9319231 0.0974733157,24.6873253 C0.391368665,24.4418539 1.27567099,23.259049 1.27567099,23.259049 C1.27567099,23.259049 0.734973316,21.980152 0.881484944,20.9938988 C1.02974076,20.0102663 3.14369425,13.1685169 3.68264773,12.9212984 C4.22508959,12.6758271 3.38788029,9.96865379 3.43846169,9.6716422 C3.4872989,9.3772513 5.20706634,5.04612345 5.20706634,4.40492783 C5.20706634,3.76547935 6.14107797,2.9766515 6.4367175,2.78097328 C6.73148494,2.58354793 7.22160122,0.614535788 7.71346169,0.319271323 C8.20619425,0.0248804221 10.1710198,-0.517602514 10.5634617,1.20419115 C10.9567756,2.92773195 9.97305471,5.88212372 9.18817099,6.2752273 C9.18817099,6.2752273 8.94049657,9.3772513 8.59689192,10.2141251 C8.25328727,11.0492518 8.98933378,11.8380797 8.98933378,11.8380797 L8.98933378,11.8380797 L10.6541594,11.9367924 C10.6541594,11.9367924 10.2015431,9.86994112 10.6541594,9.3772513 C11.1041594,8.88630861 11.9884617,7.99876809 12.7262524,8.04768765 C13.4640431,8.09748077 14.1992175,8.83651549 14.3483454,9.86994112 C14.4966012,10.9033667 16.2154966,12.5771144 16.3620082,13.1187238 C16.510264,13.6594596 18.1314849,18.1880128 18.3294501,19.4206109 C18.5247989,20.6497148 19.2120082,25.8692567 18.3294501,29.5600625 C17.4434035,33.2526154 17.2480547,33.8920639 16.6585198,34.87657 C16.0681129,35.8610761 16.1666594,44.4272398 16.903578,48.9549194 C17.6404966,53.4843462 20.3919501,64.7568097 20.8349733,68.0055923 C21.2762524,71.2552486 21.7184035,76.7674343 21.5239268,78.0961244 C21.5239268,78.0961244 21.8666594,78.785366 22.407357,79.3287225 C22.9489268,79.8685847 23.6858454,79.5235271 25.9942756,81.3457806 C28.3061942,83.1671605 34.8399152,89.5179672 35.4791594,89.7634385 C36.1184035,90.010657 37.0532873,89.7634385 37.0532873,89.7634385 C37.0532873,89.7634385 39.263171,89.0741969 41.5742175,90.2570019 C43.8817756,91.4380598 46.2904966,93.456865 46.0463105,97.1965904 C46.0463105,97.1965904 46.2434035,98.0832574 47.9622989,98.0343378 C49.6820663,97.9845447 53.5646245,97.8849584 54.1541594,98.5279012 C54.7428222,99.1673497 55.7771245,100.841097 56.3657873,100.791304 C56.9544501,100.742385 58.135264,99.7080855 58.3306129,96.1124981 C58.528578,92.5212785 58.2704384,92.4714854 58.1596826,92.2137842 C58.0497989,91.9543358 57.7175315,91.0309792 57.6809035,90.5898296 C57.6425315,90.1460594 57.1279966,89.8874846 57.0896245,89.3336453 C57.0538687,88.7789325 56.316078,88.0398978 56.316078,87.7096907 C56.316078,87.7096907 53.6614268,86.1215523 53.1826477,84.4242184 C52.7038687,82.7242638 53.4791594,80.8050448 53.9579384,80.8050448 C53.9579384,80.8050448 53.2576477,76.227572 53.7355547,75.0832039 C54.2143338,73.9370885 54.5108454,70.8009956 56.5009617,69.0285352 C58.4902059,67.2560749 58.7125896,66.0365802 59.9291594,65.3351087 C61.144857,64.6345108 64.6096826,62.4934066 66.010264,62.8244872 C67.4117175,63.1581885 68.0378803,62.2339583 69.1053222,62.4191537 C70.1762524,62.6034756 70.9105547,61.9011306 71.9064849,62.3449008 C72.9032873,62.7886711 73.1971826,62.7886711 74.1939849,63.1581885 C75.1872989,63.5268323 77.0300315,63.7469703 78.8736361,65.7404422 C80.7163687,67.7365348 81.9695663,68.5463281 82.5216012,70.3214092 C83.0745082,72.0903753 83.8489268,74.4551117 83.8489268,76.6329055 C83.8489268,78.8106993 82.5216012,81.0644932 82.4867175,81.6174589 C82.4483454,82.169551 83.0012524,81.9135969 83.1111361,81.9135969 C83.222764,81.9135969 84.3652059,82.0236659 84.4393338,82.9819651 C84.5117175,83.9428849 83.8489268,87.3392998 83.2593919,88.0398978 C82.6716012,88.7422428 81.8588105,90.1076226 81.3800315,90.2570019 C80.9021245,90.4055077 80.4582291,90.4055077 80.4582291,90.4055077 C80.4582291,90.4055077 79.7954384,93.394842 78.5056129,94.2063825 C78.5056129,94.2063825 77.841078,99.8557177 77.6570663,101.628178 C77.4739268,103.400638 76.6245082,106.057145 77.5088105,107.165697 C78.3939849,108.273376 78.2841012,106.576042 78.8736361,106.352409 C79.4622989,106.132271 81.2317756,106.427536 81.6390431,106.871306 C82.0428222,107.315076 82.9271245,106.611858 83.4800315,106.466846 C84.0329384,106.316593 84.919857,106.800548 85.1771245,107.536962 C85.4343919,108.273376 86.3936942,107.384962 86.8716012,108.089054 C87.3512524,108.788778 88.2721826,108.678709 88.7867175,109.49287 C89.3047408,110.303537 90.263171,110.415353 90.741078,111.042572 C91.219857,111.668917 92.6588105,112.333699 92.5105547,113.442251 C92.5105547,113.442251 92.9143338,113.18455 94.5015431,114.290481 C96.0870082,115.399033 97.228578,115.952872 97.5974733,115.915309 C97.9663687,115.877746 98.4442756,115.477654 99.1436942,115.91793 C99.844857,116.359953 100.582648,116.32239 100.582648,116.32239 L100.582648,116.32239 L96.6625896,102.464178 C96.6625896,102.464178 95.3500896,102.327029 94.9803222,101.333787 C94.6122989,100.335304 94.538171,98.6755334 94.538171,98.5628437 C94.538171,98.4527747 93.5064849,98.4527747 93.5797408,97.9731884 C93.6521245,97.4918549 94.3175315,97.3809123 94.3175315,97.3809123 C94.3175315,97.3809123 94.463171,97.0122685 94.3532873,96.6811879 C94.2442756,96.3492338 93.8003803,94.8702908 94.0593919,94.4658309 C94.0593919,94.4658309 95.7181129,94.0220606 96.7497989,95.2048656 C96.7497989,95.2048656 97.9279966,94.3907044 98.5559035,94.7226586 C98.5559035,94.7226586 99.1436942,96.3492338 98.222764,97.1965904 C98.222764,97.1965904 100.767531,99.2643152 99.0730547,101.628178 L99.0730547,101.628178 L113.925671,150.103964 C113.925671,150.103964 114.847473,149.920516 114.921601,150.103964 C114.993985,150.290033 115.141369,151.1007 115.584392,151.357528 C116.025671,151.61785 116.945729,150.473481 117.426252,151.357528 C117.906776,152.244195 119.084101,154.091781 120.045148,154.23854 C121.002706,154.386172 121.332357,155.012517 121.111718,155.974311 C120.892822,156.933484 120.77945,157.37638 121.332357,157.821024 C121.885264,158.263047 122.956194,160.182266 123.618985,161.733715 C123.830031,162.228152 124.237299,163.111325 124.684683,164.149992 L124.684683,164.149992 L130.70677,164.149992 L130.70677,51.8105985 L25.0056113,51.8105985 C24.1902044,48.1040686 23.3486346,44.2874696 22.9893323,42.0764804 C22.6108439,39.7475601 22.4015416,36.3537659 22.3692741,33.4692592 L22.3692741,33.4692592 L149.017235,33.4692592 L149.017235,182.492205 L0.244269593,182.492205 Z M102.756776,123.040093 L102.38788,123.299541 C102.38788,123.299541 102.756776,123.854254 102.38788,124.074392 C102.019857,124.298898 101.760845,124.593289 102.019857,124.88768 C102.277997,125.182944 102.277997,125.73591 101.650962,125.996232 C101.026543,126.251313 102.241369,127.987957 102.241369,129.538532 C102.241369,131.089107 102.093985,132.272786 102.129741,133.083453 C102.168985,133.894993 102.537008,135.704143 102.277997,136.849385 C102.019857,137.9955 102.571892,140.394306 102.203869,140.616191 C101.834973,140.837202 101.061427,142.055823 101.72509,142.904927 C102.38788,143.753157 103.972473,143.533893 104.306485,144.157617 C104.637008,144.787457 105.963462,145.526491 105.852706,146.485664 C105.74195,147.443963 105.890206,147.740101 106.479741,147.887733 C107.068404,148.03886 108.986136,149.031228 109.429159,149.807826 C109.869566,150.584424 110.31259,150.842125 110.681485,150.65955 L110.681485,150.65955 L102.756776,123.040093 Z M11.053578,16.7501273 C11.0186942,16.526495 10.5390431,16.526495 10.5390431,16.7501273 C10.5390431,16.9693917 11.2027059,18.0779438 11.166078,18.3732083 C11.128578,18.6675992 11.6064849,19.002174 12.0146245,18.8527946 C12.4192756,18.7051624 12.8980547,18.7051624 12.713171,17.8569322 C12.713171,17.8569322 11.0919501,16.9693917 11.053578,16.7501273 Z" id="Combined-Shape" fill="#FEB612"></path>
            </g>
        </g>
    </g>
</svg>